<svg width="18" height="18" viewBox="0 0 18 18" fill="none" xmlns="http://www.w3.org/2000/svg">
<g id="Fill/CircleWavyCheck">
<path id="Vector" d="M12.5237 7.76553L12.5236 7.7655L8.40334 11.703L8.40298 11.7033C8.28477 11.8145 8.12831 11.876 7.96602 11.875M12.5237 7.76553L7.96641 11.8125M12.5237 7.76553L12.5253 7.76384M12.5237 7.76553L12.5253 7.76384M7.96602 11.875L7.96641 11.8125M7.96602 11.875C7.96623 11.875 7.96644 11.875 7.96664 11.875L7.96641 11.8125M7.96602 11.875C7.80598 11.8754 7.65201 11.8138 7.53651 11.703M7.96641 11.8125C7.82232 11.813 7.68365 11.7576 7.57969 11.6578M7.53651 11.703L7.57969 11.6578M7.53651 11.703C7.53648 11.703 7.53644 11.7029 7.53641 11.7029M7.53651 11.703L7.53641 11.7029M7.57969 11.6578L7.53641 11.7029M7.57969 11.6578L7.53641 11.7029M7.53641 11.7029L5.47735 9.7352C5.41436 9.67999 5.36311 9.61267 5.32664 9.53725C5.28997 9.46139 5.26901 9.3789 5.26503 9.29474C5.26104 9.21058 5.27412 9.12648 5.30347 9.0475C5.33282 8.96852 5.37784 8.89629 5.43581 8.83515C5.49379 8.77401 5.56353 8.72522 5.64084 8.69172C5.71816 8.65822 5.80144 8.6407 5.8857 8.64021C5.96995 8.63973 6.05344 8.65628 6.13114 8.68888C6.20845 8.72131 6.27844 8.76898 6.33695 8.82902M7.53641 11.7029L6.33695 8.82902M6.33695 8.82902L6.33611 8.82821L6.29297 8.87344L6.33782 8.82991C6.33753 8.82961 6.33724 8.82932 6.33695 8.82902ZM12.5253 7.76384C12.6376 7.64811 12.7009 7.49345 12.7018 7.33218C12.7028 7.1709 12.6413 7.01551 12.5303 6.89849C12.4194 6.78146 12.2675 6.71187 12.1064 6.70424C11.9453 6.69662 11.7875 6.75157 11.6659 6.85759L11.6659 6.85755M12.5253 7.76384L11.6659 6.85755M11.6659 6.85755L11.6639 6.85944M11.6659 6.85755L11.6639 6.85944M11.6639 6.85944L7.96642 10.3832L11.6639 6.85944ZM14.5687 3.43125C14.0273 2.88984 13.2469 2.87578 12.5648 2.86875L15.8836 7.22813C15.6164 6.95391 15.3422 6.66563 15.2367 6.41953C15.1427 6.20023 15.1381 5.886 15.1332 5.55646C15.1326 5.51621 15.132 5.47572 15.1312 5.43516C15.1242 4.75313 15.1102 3.97266 14.5687 3.43125ZM15.4516 6.85347C15.5684 6.99252 15.7052 7.1346 15.8386 7.27156C16.3066 7.76081 16.8125 8.29818 16.8125 9C16.8125 9.70183 16.3066 10.2392 15.8386 10.7285C15.7052 10.8654 15.5649 11.011 15.4464 11.1517C15.3288 11.2915 15.2282 11.4316 15.1786 11.5576C15.1294 11.6824 15.1042 11.8427 15.0901 12.0148C15.0759 12.1867 15.0723 12.3758 15.0688 12.5608L15.0688 12.5637L15.0688 12.5642C15.0617 13.2513 15.0451 14.004 14.5246 14.5246C14.004 15.0451 13.2513 15.0617 12.5642 15.0688L12.5637 15.0688C12.5238 15.0695 12.4837 15.0701 12.4437 15.0707C12.2988 15.0728 12.1547 15.075 12.0206 15.0847C11.8498 15.0972 11.6886 15.1224 11.5558 15.1793C11.4243 15.2357 11.285 15.3353 11.1465 15.4516C11.0075 15.5684 10.8654 15.7052 10.7285 15.8386C10.2392 16.3066 9.70183 16.8125 9 16.8125C8.29818 16.8125 7.76081 16.3066 7.27156 15.8386C7.13461 15.7052 6.98903 15.5649 6.84826 15.4464C6.70847 15.3288 6.56842 15.2282 6.44244 15.1786C6.31765 15.1294 6.15726 15.1042 5.98522 15.0901C5.81325 15.0759 5.62416 15.0723 5.43923 15.0688L5.43634 15.0688L5.4358 15.0688C4.74868 15.0617 3.99595 15.0451 3.47544 14.5246C2.95494 14.004 2.93833 13.2513 2.93125 12.5642L2.93124 12.5637C2.93049 12.5238 2.92989 12.4837 2.9293 12.4437C2.92716 12.2988 2.92504 12.1547 2.91526 12.0206C2.90281 11.8498 2.87761 11.6886 2.82073 11.5558C2.76433 11.4243 2.66467 11.285 2.54835 11.1465C2.4316 11.0075 2.29481 10.8654 2.16138 10.7285C1.69339 10.2392 1.1875 9.70183 1.1875 9C1.1875 8.29818 1.69338 7.7608 2.16136 7.27154C2.29479 7.13461 2.43508 6.98903 2.55358 6.84826C2.67125 6.70847 2.7718 6.56842 2.82143 6.44244C2.87059 6.31765 2.89576 6.15726 2.90994 5.98522C2.92413 5.81324 2.9277 5.62414 2.93118 5.4392L2.93124 5.43634L2.93125 5.4358C2.93833 4.74868 2.95494 3.99595 3.47544 3.47544C3.99595 2.95494 4.74868 2.93833 5.4358 2.93125L5.43634 2.93124C5.47625 2.93049 5.51629 2.92989 5.55628 2.9293C5.70121 2.92716 5.84535 2.92504 5.97935 2.91526C6.15018 2.90281 6.31143 2.87761 6.44415 2.82073C6.57575 2.76433 6.71496 2.66467 6.85347 2.54835C6.99251 2.43159 7.13459 2.2948 7.27154 2.16136C7.7608 1.69338 8.29818 1.1875 9 1.1875C9.70183 1.1875 10.2392 1.69339 10.7285 2.16138C10.8654 2.2948 11.011 2.43509 11.1517 2.55358C11.2915 2.67125 11.4316 2.7718 11.5576 2.82143C11.6824 2.87059 11.8427 2.89576 12.0148 2.90994C12.1868 2.92413 12.3759 2.9277 12.5608 2.93118L12.5637 2.93124L12.5642 2.93125C13.2513 2.93833 14.004 2.95494 14.5246 3.47544C15.0451 3.99595 15.0617 4.74868 15.0688 5.4358L15.0688 5.43634C15.0695 5.47624 15.0701 5.51628 15.0707 5.55626C15.0728 5.7012 15.075 5.84534 15.0847 5.97935C15.0972 6.15018 15.1224 6.31143 15.1793 6.44415C15.2357 6.57575 15.3353 6.71496 15.4516 6.85347ZM15.2367 11.5805C15.3281 11.3484 15.6164 11.0461 15.8836 10.7719L7.22813 15.8836C7.71328 16.3477 8.26875 16.875 9 16.875C9.73125 16.875 10.2867 16.3477 10.7719 15.8836C11.0461 15.6164 11.3344 15.3422 11.5805 15.2367C11.7998 15.1427 12.114 15.1381 12.4435 15.1332C12.4838 15.1326 12.5243 15.132 12.5648 15.1312C13.2469 15.1242 14.0273 15.1102 14.5687 14.5687C15.1102 14.0273 15.1242 13.2469 15.1312 12.5648L15.1313 12.5631C15.1383 12.191 15.1455 11.8121 15.2367 11.5805ZM3.43125 3.43125C2.88984 3.97266 2.87578 4.75313 2.86875 5.43516L5.43516 2.86875C4.75313 2.87578 3.97266 2.88984 3.43125 3.43125ZM3.43125 14.5687C3.97266 15.1102 4.75313 15.1242 5.43516 15.1312L2.86875 12.5648C2.87578 13.2469 2.88984 14.0273 3.43125 14.5687Z" fill="#2CB1F5" stroke="#2CB1F5" stroke-width="0.125"/>
</g>
</svg>
