<svg width="18" height="18" viewBox="0 0 18 18" fill="none" xmlns="http://www.w3.org/2000/svg">
<path d="M6.75 5.0625V3.375" stroke="#2CB1F5" stroke-linecap="round" stroke-linejoin="round"/>
<path d="M11.25 14.625V12.9375" stroke="#2CB1F5" stroke-linecap="round" stroke-linejoin="round"/>
<path d="M5.0625 6.75H3.375" stroke="#2CB1F5" stroke-linecap="round" stroke-linejoin="round"/>
<path d="M14.625 11.25H12.9375" stroke="#2CB1F5" stroke-linecap="round" stroke-linejoin="round"/>
<path d="M4.9918 9.02808L4.19727 9.82261C3.66953 10.3503 3.37305 11.0661 3.37305 11.8125C3.37305 12.182 3.44583 12.5479 3.58725 12.8893C3.72867 13.2308 3.93596 13.541 4.19727 13.8023C4.45858 14.0636 4.7688 14.2709 5.11022 14.4123C5.45163 14.5537 5.81756 14.6265 6.18711 14.6265C6.93345 14.6265 7.64922 14.33 8.17695 13.8023L8.97148 13.0078" stroke="#2CB1F5" stroke-linecap="round" stroke-linejoin="round"/>
<path d="M13.008 8.97185L13.8025 8.17732C14.3303 7.64958 14.6268 6.93381 14.6268 6.18748C14.6268 5.44114 14.3303 4.72537 13.8025 4.19763C13.2748 3.66989 12.559 3.37341 11.8127 3.37341C11.0664 3.37341 10.3506 3.66989 9.82285 4.19763L9.02832 4.99216" stroke="#2CB1F5" stroke-linecap="round" stroke-linejoin="round"/>
</svg>
