<svg width="14" height="15" viewBox="0 0 14 15" fill="none" xmlns="http://www.w3.org/2000/svg">
<path fill-rule="evenodd" clip-rule="evenodd" d="M6.07478 1.98615C6.51237 1.54857 7.10586 1.30273 7.7247 1.30273H11.0832C12.0497 1.30273 12.8332 2.08624 12.8332 3.05273V6.41119C12.8332 7.03003 12.5873 7.62352 12.1497 8.06111L7.65393 12.5569C6.97051 13.2403 5.86247 13.2403 5.17905 12.5569L1.57897 8.95684C0.895551 8.27342 0.895553 7.16538 1.57897 6.48196L6.07478 1.98615ZM7.7247 2.4694C7.41528 2.4694 7.11853 2.59232 6.89974 2.81111L2.40393 7.30692C2.17612 7.53473 2.17612 7.90407 2.40393 8.13188L6.00401 11.732C6.23182 11.9598 6.60116 11.9598 6.82897 11.732L11.3248 7.23615C11.5436 7.01736 11.6665 6.72061 11.6665 6.41119V3.05273C11.6665 2.73057 11.4053 2.4694 11.0832 2.4694H7.7247Z" fill="#D5625E"/>
<path d="M2.08984 5.96949L2.9148 5.14453L8.98976 11.2195L8.1648 12.0444L2.08984 5.96949Z" fill="#D5625E"/>
<path fill-rule="evenodd" clip-rule="evenodd" d="M8.75 5.97005C9.07217 5.97005 9.33333 5.70888 9.33333 5.38672C9.33333 5.06455 9.07217 4.80339 8.75 4.80339C8.42783 4.80339 8.16667 5.06455 8.16667 5.38672C8.16667 5.70888 8.42783 5.97005 8.75 5.97005ZM8.75 7.13672C9.7165 7.13672 10.5 6.35322 10.5 5.38672C10.5 4.42022 9.7165 3.63672 8.75 3.63672C7.7835 3.63672 7 4.42022 7 5.38672C7 6.35322 7.7835 7.13672 8.75 7.13672Z" fill="#D5625E"/>
</svg>
