<svg width="16" height="16" viewBox="0 0 16 16" fill="none" xmlns="http://www.w3.org/2000/svg">
<path d="M14.5 6.70619L10.8438 10.3624C11.125 11.1562 11.2438 12.4812 10.0188 14.1124C9.93196 14.2269 9.82194 14.3217 9.69591 14.3906C9.56989 14.4596 9.43071 14.5011 9.28751 14.5124H9.21876C8.95385 14.5113 8.70008 14.4057 8.51251 14.2187L5.50001 11.2062L3.35626 13.3562C3.26069 13.4486 3.13295 13.5003 3.00001 13.5003C2.86707 13.5003 2.73933 13.4486 2.64376 13.3562C2.54987 13.2614 2.4972 13.1334 2.4972 12.9999C2.4972 12.8665 2.54987 12.7385 2.64376 12.6437L4.79376 10.4999L1.76876 7.47494C1.66841 7.37606 1.59023 7.25699 1.53941 7.1256C1.48858 6.99422 1.46627 6.85353 1.47395 6.71286C1.48164 6.5722 1.51914 6.43478 1.58397 6.30971C1.64881 6.18464 1.73949 6.07479 1.85001 5.98744C3.43751 4.70619 4.95626 4.96244 5.62501 5.16869L9.29376 1.49994C9.48202 1.31443 9.73571 1.21045 10 1.21045C10.2643 1.21045 10.518 1.31443 10.7063 1.49994L14.5 5.29369C14.5934 5.38609 14.6675 5.49609 14.718 5.61731C14.7686 5.73854 14.7947 5.86858 14.7947 5.99994C14.7947 6.13129 14.7686 6.26133 14.718 6.38256C14.6675 6.50378 14.5934 6.61378 14.5 6.70619Z" fill="white"/>
</svg>
