<svg width="41" height="40" viewBox="0 0 41 40" fill="none" xmlns="http://www.w3.org/2000/svg">
<path d="M15.5 22.5C16.8807 22.5 18 21.3807 18 20C18 18.6193 16.8807 17.5 15.5 17.5C14.1193 17.5 13 18.6193 13 20C13 21.3807 14.1193 22.5 15.5 22.5Z" stroke="white" stroke-width="1.5" stroke-linecap="round" stroke-linejoin="round"/>
<path d="M24.25 28.125C25.6307 28.125 26.75 27.0057 26.75 25.625C26.75 24.2443 25.6307 23.125 24.25 23.125C22.8693 23.125 21.75 24.2443 21.75 25.625C21.75 27.0057 22.8693 28.125 24.25 28.125Z" stroke="white" stroke-width="1.5" stroke-linecap="round" stroke-linejoin="round"/>
<path d="M24.25 16.875C25.6307 16.875 26.75 15.7557 26.75 14.375C26.75 12.9943 25.6307 11.875 24.25 11.875C22.8693 11.875 21.75 12.9943 21.75 14.375C21.75 15.7557 22.8693 16.875 24.25 16.875Z" stroke="white" stroke-width="1.5" stroke-linecap="round" stroke-linejoin="round"/>
<path d="M22.1484 15.7266L17.6016 18.6484" stroke="white" stroke-width="1.5" stroke-linecap="round" stroke-linejoin="round"/>
<path d="M17.6016 21.3516L22.1484 24.2734" stroke="white" stroke-width="1.5" stroke-linecap="round" stroke-linejoin="round"/>
</svg>
