<svg width="16" height="16" viewBox="0 0 16 16" fill="none" xmlns="http://www.w3.org/2000/svg">
<path fill-rule="evenodd" clip-rule="evenodd" d="M2 3.33341C2 1.86066 3.19391 0.666748 4.66667 0.666748H10.2288C10.936 0.666748 11.6143 0.9477 12.1144 1.4478L13.219 2.55237C13.719 3.05246 14 3.73074 14 4.43798V12.6667C14 14.1395 12.8061 15.3334 11.3333 15.3334H4.66667C3.19391 15.3334 2 14.1395 2 12.6667V3.33341ZM12.6667 5.33341V12.6667C12.6667 13.4031 12.0697 14.0001 11.3333 14.0001H4.66667C3.93029 14.0001 3.33333 13.4031 3.33333 12.6667V3.33341C3.33333 2.59704 3.93029 2.00008 4.66667 2.00008H9.33333V3.33341C9.33333 4.43798 10.2288 5.33341 11.3333 5.33341H12.6667ZM12.5927 4.00008C12.5272 3.81181 12.4198 3.6388 12.2761 3.49518L11.1716 2.39061C11.028 2.24698 10.8549 2.13951 10.6667 2.07404V3.33341C10.6667 3.7016 10.9651 4.00008 11.3333 4.00008H12.5927Z" fill="#9DA1AC"/>
<path d="M5.9987 8C5.63051 8 5.33203 8.29848 5.33203 8.66667C5.33203 9.03486 5.63051 9.33333 5.9987 9.33333H9.9987C10.3669 9.33333 10.6654 9.03486 10.6654 8.66667C10.6654 8.29848 10.3669 8 9.9987 8H5.9987Z" fill="#9DA1AC"/>
<path d="M5.9987 10.6667C5.63051 10.6667 5.33203 10.9651 5.33203 11.3333C5.33203 11.7015 5.63051 12 5.9987 12H7.9987C8.36689 12 8.66536 11.7015 8.66536 11.3333C8.66536 10.9651 8.36689 10.6667 7.9987 10.6667H5.9987Z" fill="#9DA1AC"/>
</svg>
